<?xml version="1.0" standalone="no"?>
<!DOCTYPE svg PUBLIC "-//W3C//DTD SVG 20010904//EN"
 "http://www.w3.org/TR/2001/REC-SVG-20010904/DTD/svg10.dtd">
<svg version="1.0" xmlns="http://www.w3.org/2000/svg"
 width="225.000000pt" height="225.000000pt" viewBox="0 0 225.000000 225.000000"
 preserveAspectRatio="xMidYMid meet">
<metadata>
Created by potrace 1.14, written by Peter Selinger 2001-2017
</metadata>
<g transform="translate(0.000000,225.000000) scale(0.100000,-0.100000)"
fill="#000000" stroke="none">
<path d="M1561 2164 c-111 -30 -145 -56 -432 -343 -210 -209 -283 -289 -303
-328 -15 -29 -30 -53 -35 -53 -5 0 -8 -6 -8 -12 1 -7 -5 -40 -12 -73 -9 -40
-11 -89 -8 -145 l6 -85 -87 -90 -87 -90 92 89 92 90 11 -30 c53 -142 171 -263
300 -309 l44 -15 34 32 c43 42 71 95 78 152 6 43 6 44 -27 51 -89 19 -168 90
-192 172 -17 56 -9 129 19 190 10 21 123 143 257 279 261 266 287 285 386 285
141 1 252 -104 254 -239 2 -106 -6 -118 -244 -357 l-218 -220 10 -50 c12 -60
5 -166 -15 -224 -35 -96 54 -27 365 286 279 280 305 313 335 428 20 75 18 201
-6 277 -50 161 -184 291 -345 333 -73 19 -192 18 -264 -1z"/>
<path d="M639 1333 c-13 -16 -12 -17 4 -4 9 7 17 15 17 17 0 8 -8 3 -21 -13z"/>
<path d="M400 1093 l-215 -218 218 215 c119 118 217 216 217 217 0 8 -20 -12
-220 -214z"/>
<path d="M510 865 c-41 -41 -72 -75 -69 -75 2 0 38 34 79 75 41 41 72 75 69
75 -2 0 -38 -34 -79 -75z"/>
<path d="M394 748 l-29 -33 33 29 c30 28 37 36 29 36 -2 0 -16 -15 -33 -32z"/>
<path d="M1125 418 l-250 -253 253 250 c234 232 257 255 249 255 -1 0 -115
-114 -252 -252z"/>
<path d="M73 560 c0 -30 2 -43 4 -27 2 15 2 39 0 55 -2 15 -4 2 -4 -28z"/>
<path d="M313 560 c0 -25 2 -35 4 -22 2 12 2 32 0 45 -2 12 -4 2 -4 -23z"/>
<path d="M729 363 c-13 -16 -12 -17 4 -4 16 13 21 21 13 21 -2 0 -10 -8 -17
-17z"/>
<path d="M170 256 c0 -2 8 -10 18 -17 15 -13 16 -12 3 4 -13 16 -21 21 -21 13z"/>
<path d="M240 186 c0 -2 8 -10 18 -17 15 -13 16 -12 3 4 -13 16 -21 21 -21 13z"/>
<path d="M553 63 c9 -2 25 -2 35 0 9 3 1 5 -18 5 -19 0 -27 -2 -17 -5z"/>
</g>
</svg>
